HIERARCHY
ROOT Hips
{
    OFFSET 0.0 0.0 0.0
    CHANNELS 6 Xposition Yposition Zposition Zrotation Xrotation Yrotation
    JOINT Spine
    {
        OFFSET 0.0 5.0 0.0
        CHANNELS 3 Zrotation Xrotation Yrotation
        JOINT Chest
        {
            OFFSET 0.0 5.0 0.0
            CHANNELS 3 Zrotation Xrotation Yrotation
            JOINT Neck
            {
                OFFSET 0.0 8.0 0.0
                CHANNELS 3 Zrotation Xrotation Yrotation
                JOINT Head
                {
                    OFFSET 0.0 5.0 0.0
                    CHANNELS 3 Zrotation Xrotation Yrotation
                    End Site
                    {
                        OFFSET 0.0 3.0 0.0
                    }
                }
            }
            JOINT LeftShoulder
            {
                OFFSET -5.0 0.0 0.0
                CHANNELS 3 Zrotation Xrotation Yrotation
                JOINT LeftArm
                {
                    OFFSET 0.0 -10.0 0.0
                    CHANNELS 3 Zrotation Xrotation Yrotation
                    JOINT LeftForeArm
                    {
                        OFFSET 0.0 -10.0 0.0
                        CHANNELS 3 Zrotation Xrotation Yrotation
                        End Site
                        {
                            OFFSET 0.0 -3.0 0.0
                        }
                    }
                }
            }
        }
    }
}

MOTION
Frames: 44
Frame Time: 0.033333
970.000000 442.938926 144.575664 0.000000 0.000000 0.000000 0.000000 0.000000 0.000000 29.678605 -26.094393 0.000000 180.000000 9.864311 0.000000 29.744881 1.736684 -0.000000 150.255119 9.033281 30.000000 19.983107 -4.218289 0.000000 18.000000 -0.235908 0.000000
1354.522934 467.411410 144.353904 0.000000 0.000000 0.000000 0.000000 0.000000 0.000000 150.622570 -2.436948 4.973798 -29.377430 -3.050236 4.973798 140.176400 2.788034 3.759997 -12.221629 2.449686 29.763441 132.794256 -1.190242 -3.759997 -2.626015 -0.134818 0.313953
969.997807 442.887864 112.447155 0.000000 0.000000 0.000000 0.000000 0.000000 0.000000 31.061399 -24.625934 9.635073 180.000000 13.466400 9.635073 30.285790 -12.346843 7.460697 149.714210 7.743595 29.057495 19.151579 -0.989705 -7.460697 18.000000 -0.626472 0.626666
1246.736984 514.278152 147.078399 0.000000 0.000000 0.000000 0.000000 0.000000 0.000000 143.557092 -10.743081 13.690942 -36.442908 4.977912 13.690942 133.761037 -4.113081 11.043737 -156.950665 -5.566981 27.893295 0.000000 0.000000 0.000000 1.928484 0.428986 0.936907
1245.221100 458.637464 115.720725 0.000000 0.000000 0.000000 0.000000 0.000000 0.000000 160.701064 28.313834 16.886559 -19.298936 5.394615 16.886559 140.193827 -9.811196 14.452610 -157.554825 -6.111373 26.289200 29.500467 6.146240 -14.452610 -15.049953 -0.614624 1.243449
1257.365570 418.514181 102.044807 0.000000 0.000000 0.000000 0.000000 0.000000 0.000000 -143.710676 11.401692 19.021130 36.289324 -21.568010 19.021130 163.220413 8.321385 17.633558 11.688054 -5.901695 24.270510 152.038385 -0.192760 -17.633558 -2.339948 0.116509 1.545085
1275.099564 408.163741 104.722227 0.000000 0.000000 0.000000 0.000000 0.000000 0.000000 -132.929531 1.688835 19.960535 47.070469 -10.287089 19.960535 173.491912 7.157702 20.536413 -160.709681 -5.350790 21.869059 33.138793 5.092136 -20.536413 -14.686121 -0.509214 1.840623
1290.611115 384.880857 96.950676 0.000000 0.000000 0.000000 0.000000 0.000000 0.000000 -132.705235 8.031457 19.645745 47.294765 -8.323940 19.645745 -173.778854 4.897417 23.115397 20.496835 -2.986645 19.122720 -161.220290 -3.875703 -23.115397 1.723235 0.342444 2.128896
1302.817154 380.305352 98.489074 0.000000 0.000000 0.000000 0.000000 0.000000 0.000000 -131.493915 -4.015930 18.096541 48.506085 -3.555714 18.096541 -165.393697 4.147914 25.329838 23.154815 3.455665 16.074804 -178.200316 -1.613095 -25.329838 0.138141 0.019866 2.408768
1304.997711 379.563582 89.191735 0.000000 0.000000 0.000000 0.000000 0.000000 0.000000 -126.727972 -6.532829 15.410265 53.272028 6.658250 15.410265 -160.219593 -0.671328 27.144812 28.448880 2.306580 12.773379 -174.368770 -0.563425 -27.144812 0.079526 0.045644 2.679134
1311.668472 386.890390 103.388736 0.000000 0.000000 0.000000 0.000000 0.000000 0.000000 -122.308728 -21.260031 11.755705 57.691272 0.665374 11.755705 -158.801130 3.584981 28.531695 150.942637 10.722414 9.270510 -154.878332 -5.355984 -28.531695 2.695409 0.558187 2.938926
1305.131836 395.180186 76.683793 0.000000 0.000000 0.000000 0.000000 0.000000 0.000000 -125.112810 3.226051 7.362491 54.887190 24.266878 7.362491 -146.487292 -2.350941 29.468618 -175.167369 4.752831 5.621439 -159.224034 -4.453209 -29.468618 1.782042 0.549031 3.187120
1296.320457 392.734526 80.847712 0.000000 0.000000 0.000000 0.000000 0.000000 0.000000 -131.035750 -11.449555 2.506665 48.964250 13.025389 2.506665 -128.969563 -1.851247 29.940802 38.856147 0.316180 1.883716 -134.776850 0.085168 -29.940802 3.458429 0.240373 3.422736
1306.963577 386.612041 65.800906 0.000000 0.000000 0.000000 0.000000 0.000000 0.000000 -124.469622 -5.286111 -2.506665 55.530378 -1.766096 -2.506665 -109.994856 0.859954 29.940802 37.691309 0.343214 -1.883716 -118.274788 -0.956700 -29.940802 5.098336 -0.033059 3.644843
969.892723 442.572198 72.632002 0.000000 0.000000 0.000000 0.000000 0.000000 0.000000 41.287575 7.405431 -7.362491 180.000000 -14.553238 -7.362491 30.974696 13.861826 29.468618 149.025304 2.900365 -5.621439 15.072869 2.930125 -29.468618 18.000000 -0.300596 3.852566
969.876883 442.545207 73.258511 0.000000 0.000000 0.000000 0.000000 0.000000 0.000000 42.241956 26.385988 -11.755705 180.000000 -13.985812 -11.755705 30.826133 16.894582 28.531695 149.173867 -16.756299 -9.270510 14.823070 1.212118 -28.531695 18.000000 0.192583 4.045085
969.859960 442.518116 50.774213 0.000000 0.000000 0.000000 0.000000 0.000000 0.000000 43.199779 17.099152 -15.410265 180.000000 -14.846172 -15.410265 30.649504 9.451425 27.144812 149.350496 -2.958023 -12.773379 14.587557 -3.090722 -27.144812 18.000000 0.101306 4.221640
969.841956 442.490926 75.834256 0.000000 0.000000 0.000000 0.000000 0.000000 0.000000 44.157210 -20.182369 -18.096541 180.000000 14.260929 -18.096541 30.446417 -6.878222 25.329838 149.553583 13.714076 -16.074804 14.366154 -6.775613 -25.329838 18.000000 0.290055 4.381533
969.822873 442.463637 63.048518 0.000000 0.000000 0.000000 0.000000 0.000000 0.000000 45.110117 -5.566556 -19.645745 180.000000 -3.402763 -19.645745 30.218633 -2.037251 23.115397 149.781367 5.381920 -19.122720 14.158653 0.014274 -23.115397 18.000000 -0.098457 4.524135
969.802712 442.436251 50.783788 0.000000 0.000000 0.000000 0.000000 0.000000 0.000000 46.054109 47.046586 -19.960535 180.000000 -4.522743 -19.960535 29.968037 -10.943686 20.536413 150.031963 -8.320459 -21.869059 13.964823 -3.988164 -20.536413 18.000000 0.674386 4.648882
1187.040939 541.658249 46.302828 0.000000 0.000000 0.000000 0.000000 0.000000 0.000000 82.806623 -14.968188 -19.021130 -97.193377 16.415245 -19.021130 45.395981 -5.321497 17.633558 -156.144455 -2.102909 -24.270510 0.000000 0.000000 0.000000 0.000000 0.000000 0.000000
1182.242889 522.024286 60.586093 0.000000 0.000000 0.000000 0.000000 0.000000 0.000000 -105.721938 5.740797 -16.886559 74.278062 4.364891 -16.886559 -155.708006 -2.280737 14.452610 -157.302521 -2.174430 -26.289200 0.000000 0.000000 0.000000 2.684983 0.178979 4.842916
1180.914459 527.065626 60.521928 0.000000 0.000000 0.000000 0.000000 0.000000 0.000000 88.055617 -9.711685 -13.690942 -91.944383 9.609343 -13.690942 -158.862018 -2.855215 11.043737 -151.747289 -1.378453 -27.893295 0.000000 0.000000 0.000000 0.000000 0.000000 0.000000
1236.800194 541.387432 53.009489 0.000000 0.000000 0.000000 0.000000 0.000000 0.000000 -85.588400 14.953370 -9.635073 94.411600 -26.544563 -9.635073 -159.297106 14.902562 7.460697 -157.915391 -2.889561 -29.057495 26.607362 1.980243 -7.460697 14.926890 -0.191566 4.960574
1161.066513 575.006626 63.481858 0.000000 0.000000 0.000000 0.000000 0.000000 0.000000 -81.021168 0.934062 -4.973798 98.978832 -7.190085 -4.973798 -102.851701 9.920470 3.759997 -157.041007 -2.404835 -29.763441 21.429890 2.944620 -3.759997 10.859432 -0.057612 4.990134
1255.636253 512.645942 44.321578 0.000000 0.000000 0.000000 0.000000 0.000000 0.000000 77.832564 4.487924 -0.000000 -102.167436 -2.162218 -0.000000 -158.264834 -2.523185 0.000000 -130.745502 1.338618 -30.000000 -157.699225 -3.478031 -0.000000 0.000000 0.000000 0.000000
1265.118484 521.473864 54.602800 0.000000 0.000000 0.000000 0.000000 0.000000 0.000000 64.078276 4.056083 4.973798 -115.921724 0.182743 4.973798 41.397952 -5.364355 -3.759997 -139.329851 -8.966537 -29.763441 20.223252 5.463649 3.759997 -16.047574 -0.214254 4.990134
1228.099480 522.138258 49.384494 0.000000 0.000000 0.000000 0.000000 0.000000 0.000000 71.050901 -2.710744 9.635073 -108.949099 10.584787 9.635073 150.099970 -8.341436 -7.460697 -139.894702 2.695059 -29.057495 -156.275691 -3.181383 7.460697 0.000000 0.000000 0.000000
1240.357246 528.695873 65.068033 0.000000 0.000000 0.000000 0.000000 0.000000 0.000000 65.413351 8.957664 13.690942 -114.586649 -3.862286 13.690942 147.242328 -4.037317 -11.043737 -154.470720 -2.521733 -27.893295 25.557225 2.215910 11.043737 -15.444278 -0.221591 4.911436
1231.815262 551.380248 49.110460 0.000000 0.000000 0.000000 0.000000 0.000000 0.000000 56.412506 -14.463430 16.886559 -123.587494 7.648125 16.886559 -153.392336 -6.634274 -14.452610 -154.784582 -2.320184 -26.289200 24.191555 3.805544 14.452610 -15.580844 -0.380554 4.842916
1221.475182 508.360147 57.045755 0.000000 0.000000 0.000000 0.000000 0.000000 0.000000 77.450622 3.075400 19.021130 -102.549378 -9.585064 19.021130 -156.789784 -2.586622 -17.633558 -125.590168 -2.828590 -24.270510 -160.017240 -3.141188 17.633558 1.833434 0.369229 4.755283
969.477684 442.100429 61.320883 0.000000 0.000000 0.000000 0.000000 0.000000 0.000000 54.932575 -3.642305 19.960535 180.000000 -2.462790 19.960535 25.919122 7.002138 -20.536413 154.080878 -1.142738 -21.869059 12.612867 3.901181 20.536413 18.000000 0.809419 4.648882
1480.140495 518.878891 72.474210 0.000000 0.000000 0.000000 0.000000 0.000000 0.000000 -110.621767 -82.264360 19.645745 69.378233 -84.508219 19.645745 -158.235933 -2.736631 -23.115397 166.031448 -8.594498 -19.122720 -155.186432 -2.438121 23.115397 2.641553 0.310873 4.524135
1271.640472 556.840560 81.568973 0.000000 0.000000 0.000000 0.000000 0.000000 0.000000 -94.404719 18.636349 18.096541 85.595281 -10.834905 18.096541 -62.417786 5.868501 -25.329838 23.992813 3.506201 -16.074804 -76.856107 -4.846252 25.329838 7.708835 -0.011308 4.381533
1258.556786 530.268441 69.908861 0.000000 0.000000 0.000000 0.000000 0.000000 0.000000 78.355945 -1.684810 15.410265 -101.644055 -0.302951 15.410265 35.068294 0.659434 -27.144812 -54.090640 2.184817 -12.773379 35.848220 -1.454183 27.144812 -8.104639 -0.693891 4.221640
1250.800209 527.150567 91.155405 0.000000 0.000000 0.000000 0.000000 0.000000 0.000000 72.417769 1.181433 11.755705 -107.582231 12.497313 11.755705 24.571109 -0.712153 -28.531695 -39.196117 0.448851 -9.270510 10.411117 2.617730 28.531695 -9.048616 -4.161023 4.045085
1243.466148 571.776259 73.982555 0.000000 0.000000 0.000000 0.000000 0.000000 0.000000 86.301473 9.935888 7.362491 -93.698527 -8.521182 7.362491 24.553534 1.008619 -29.468618 -153.460385 -4.016883 -5.621439 19.510484 3.235374 29.468618 -10.109500 -2.547004 3.852566
1261.883812 566.052918 98.779799 0.000000 0.000000 0.000000 0.000000 0.000000 0.000000 94.015209 17.580733 2.506665 -85.984791 -14.224214 2.506665 38.959993 -0.525772 -29.940802 -154.008305 -4.320254 -1.883716 20.870951 3.394841 29.940802 -10.872440 -0.355835 3.644843
1284.436798 527.190542 116.643282 0.000000 0.000000 0.000000 0.000000 0.000000 0.000000 111.186365 -19.963746 -2.506665 -68.813635 17.900918 -2.506665 58.506163 4.493909 -29.940802 -19.138727 5.002962 1.883716 51.457372 7.757078 29.940802 -5.203198 -0.203161 3.422736
1272.860069 533.494012 103.243484 0.000000 0.000000 0.000000 0.000000 0.000000 0.000000 72.301471 -11.563482 -7.362491 -107.698529 8.165759 -7.362491 78.802573 2.478031 -29.468618 -154.772375 -4.503945 5.621439 26.927455 3.798270 29.468618 -15.307255 -0.379827 3.187120
1255.264664 498.243735 113.954702 0.000000 0.000000 0.000000 0.000000 0.000000 0.000000 164.596971 47.009083 -11.755705 -15.403029 -52.866479 -11.755705 125.849126 4.964504 -28.531695 -156.067666 -5.538589 9.270510 33.087561 4.941687 28.531695 -14.691244 -0.494169 2.938926
1259.202232 470.407684 122.103158 0.000000 0.000000 0.000000 0.000000 0.000000 0.000000 -139.980397 5.385425 -15.410265 40.019603 -7.952534 -15.410265 165.887722 -2.942360 -27.144812 -157.901492 -6.207382 12.773379 35.196094 6.183021 27.144812 -14.480391 -0.618302 2.679134
1236.502075 429.951335 130.723979 0.000000 0.000000 0.000000 0.000000 0.000000 0.000000 -113.295066 -5.421897 -18.096541 66.704934 -3.441330 -18.096541 -174.664169 3.785934 -25.329838 -159.007335 -5.456810 16.074804 32.868990 6.473683 25.329838 -14.713101 -0.647368 2.408768
1253.359451 413.942538 114.145811 0.000000 0.000000 0.000000 0.000000 0.000000 0.000000 -123.348580 -2.941527 -19.645745 56.651420 -0.374481 -19.645745 -167.815074 -1.132979 -23.115397 -159.603180 -5.585592 19.122720 32.791747 6.574089 23.115397 -14.720825 -0.657409 2.128896
